<svg width="74" height="25" viewBox="0 0 74 25" fill="none" xmlns="http://www.w3.org/2000/svg">
<path d="M0.48 15.064H1.68V4.264H0.48V0.327999H11.496C13.496 0.327999 15.056 0.735999 16.176 1.552C17.296 2.368 17.856 3.536 17.856 5.056C17.856 6 17.632 6.8 17.184 7.456C16.736 8.096 16.208 8.584 15.6 8.92C15.008 9.24 14.432 9.456 13.872 9.568V9.808C15.008 9.92 16.032 10.28 16.944 10.888C17.856 11.496 18.312 12.584 18.312 14.152C18.312 15.832 17.68 17.064 16.416 17.848C15.152 18.616 13.512 19 11.496 19H0.48V15.064ZM9.696 8.2C10.16 8.2 10.504 8.08 10.728 7.84C10.968 7.584 11.088 7.192 11.088 6.664V5.8C11.088 5.272 10.968 4.888 10.728 4.648C10.504 4.392 10.16 4.264 9.696 4.264H8.4V8.2H9.696ZM9.864 15.064C10.328 15.064 10.672 14.944 10.896 14.704C11.136 14.448 11.256 14.056 11.256 13.528V12.472C11.256 11.944 11.136 11.56 10.896 11.32C10.672 11.064 10.328 10.936 9.864 10.936H8.4V15.064H9.864ZM19.0414 19.024V15.064H20.0974V4.264H19.0414V0.327999H25.6174V15.064H26.6734V19.024H19.0414ZM34.584 19.336C32.312 19.336 30.536 18.744 29.256 17.56C27.976 16.36 27.336 14.616 27.336 12.328C27.336 10.04 27.976 8.304 29.256 7.12C30.536 5.92 32.312 5.32 34.584 5.32C36.888 5.32 38.672 5.928 39.936 7.144C41.2 8.344 41.832 10.072 41.832 12.328C41.832 14.616 41.192 16.36 39.912 17.56C38.632 18.744 36.856 19.336 34.584 19.336ZM34.584 15.064C35.048 15.064 35.392 14.944 35.616 14.704C35.856 14.448 35.976 14.056 35.976 13.528V11.128C35.976 10.6 35.856 10.216 35.616 9.976C35.392 9.72 35.048 9.592 34.584 9.592C34.12 9.592 33.768 9.72 33.528 9.976C33.304 10.216 33.192 10.6 33.192 11.128V13.528C33.192 14.056 33.304 14.448 33.528 14.704C33.768 14.944 34.12 15.064 34.584 15.064ZM49.6281 24.664C48.4761 24.664 47.3721 24.584 46.3161 24.424C45.2761 24.264 44.4681 24.08 43.8921 23.872V19.936C45.5881 20.24 47.1081 20.392 48.4521 20.392C49.3641 20.392 50.0201 20.248 50.4201 19.96C50.8361 19.688 51.0441 19.168 51.0441 18.4V17.368C50.6441 17.88 50.1241 18.336 49.4841 18.736C48.8601 19.136 48.1401 19.336 47.3241 19.336C45.6921 19.336 44.4601 18.728 43.6281 17.512C42.8121 16.296 42.4041 14.568 42.4041 12.328C42.4041 10.088 42.8121 8.36 43.6281 7.144C44.4601 5.928 45.6921 5.32 47.3241 5.32C48.1401 5.32 48.8601 5.52 49.4841 5.92C50.1241 6.32 50.6441 6.776 51.0441 7.288V5.656H57.6201V9.592H56.5641V18.04C56.5641 20.36 55.9881 22.04 54.8361 23.08C53.6841 24.136 51.9481 24.664 49.6281 24.664ZM49.6521 15.064C50.1161 15.064 50.4601 14.944 50.6841 14.704C50.9241 14.448 51.0441 14.056 51.0441 13.528V11.128C51.0441 10.6 50.9241 10.216 50.6841 9.976C50.4601 9.72 50.1161 9.592 49.6521 9.592C49.1881 9.592 48.8361 9.72 48.5961 9.976C48.3721 10.216 48.2601 10.6 48.2601 11.128V13.528C48.2601 14.056 48.3721 14.448 48.5961 14.704C48.8361 14.944 49.1881 15.064 49.6521 15.064ZM65.3312 24.664C64.1792 24.664 63.0752 24.584 62.0192 24.424C60.9792 24.264 60.1712 24.08 59.5952 23.872V19.936C61.2912 20.24 62.8112 20.392 64.1552 20.392C65.0672 20.392 65.7232 20.248 66.1232 19.96C66.5392 19.688 66.7472 19.168 66.7472 18.4V17.368C66.3472 17.88 65.8272 18.336 65.1872 18.736C64.5632 19.136 63.8432 19.336 63.0272 19.336C61.3952 19.336 60.1632 18.728 59.3312 17.512C58.5152 16.296 58.1072 14.568 58.1072 12.328C58.1072 10.088 58.5152 8.36 59.3312 7.144C60.1632 5.928 61.3952 5.32 63.0272 5.32C63.8432 5.32 64.5632 5.52 65.1872 5.92C65.8272 6.32 66.3472 6.776 66.7472 7.288V5.656H73.3232V9.592H72.2672V18.04C72.2672 20.36 71.6912 22.04 70.5392 23.08C69.3872 24.136 67.6512 24.664 65.3312 24.664ZM65.3552 15.064C65.8192 15.064 66.1632 14.944 66.3872 14.704C66.6272 14.448 66.7472 14.056 66.7472 13.528V11.128C66.7472 10.6 66.6272 10.216 66.3872 9.976C66.1632 9.72 65.8192 9.592 65.3552 9.592C64.8912 9.592 64.5392 9.72 64.2992 9.976C64.0752 10.216 63.9632 10.6 63.9632 11.128V13.528C63.9632 14.056 64.0752 14.448 64.2992 14.704C64.5392 14.944 64.8912 15.064 65.3552 15.064Z" fill="white"/>
</svg>
